<svg width="16" height="25" viewBox="0 0 16 25" fill="none" xmlns="http://www.w3.org/2000/svg">
<path d="M13.6981 2.38904C12.4659 1.41536 10.6609 0.893739 8.12707 0.893739C6.98163 0.876352 5.81883 0.980676 4.69074 1.20671C3.8577 1.39797 3.09407 1.78049 2.43457 2.3021C1.86185 2.73679 1.41062 3.32795 1.13293 3.98866C0.872606 4.63199 0.75112 5.31009 0.75112 6.00558V6.78801C0.733765 6.96188 0.872606 7.10098 1.0288 7.11836C1.04616 7.11836 1.04616 7.11836 1.06351 7.11836H4.10067C4.23951 7.10098 4.34364 6.99665 4.361 6.85756C4.41306 6.16207 4.69074 5.50135 5.14198 4.97973C5.66263 4.38857 6.63452 4.0756 8.05765 4.0756C8.66508 4.00605 9.28987 4.0756 9.87994 4.26686C10.2791 4.42334 10.6609 4.63199 10.9733 4.91019C11.4419 5.36226 11.7196 6.00558 11.7543 6.6663V7.57043C11.7543 7.8834 11.6849 8.19637 11.5634 8.47457C11.4593 8.71799 11.3031 8.94402 11.1122 9.11789C10.9733 9.30915 10.7998 9.44825 10.5915 9.56996C10.4527 9.67429 10.2965 9.76122 10.1403 9.83077C10.0709 9.90032 9.81052 9.96987 9.30722 10.1611C8.80392 10.3524 8.33533 10.5436 7.69319 10.7523C7.05105 10.9609 6.40891 11.1348 5.74941 11.3956C5.08991 11.6564 4.49984 11.7781 3.97918 11.9868C2.97258 12.3171 2.10482 13.0126 1.58417 13.9342C1.04616 14.8209 0.75112 15.8294 0.733765 16.8552V18.8547C0.768475 19.4285 0.889962 20.0023 1.06351 20.5413C1.27178 21.202 1.65359 21.7758 2.15689 22.2279C2.78168 22.8364 3.52795 23.2711 4.361 23.5319C5.5585 23.897 6.80808 24.0709 8.05765 24.0535C9.30722 24.1057 10.5568 23.9318 11.7543 23.5319C12.5874 23.2711 13.3683 22.819 14.0278 22.2279C14.5485 21.7758 14.9303 21.202 15.1212 20.5413C15.3295 20.0023 15.4336 19.4285 15.451 18.8547V6.14468C15.451 4.68415 14.8088 3.31056 13.6981 2.38904ZM11.0427 19.9675C10.5221 20.4891 9.55019 20.8021 8.12707 20.8021C6.70395 20.8021 5.73206 20.5413 5.2114 20.0197C4.63868 19.3242 4.361 18.4548 4.43042 17.5507C4.43042 17.0812 4.5519 16.6118 4.74281 16.1945C4.95107 15.8641 5.17669 15.5686 5.45437 15.2904C5.7147 15.0991 6.09651 14.9078 6.42626 14.6992C6.80808 14.5079 7.39815 14.3688 7.84939 14.1776C8.30062 13.9689 8.78657 13.7951 9.27251 13.656C9.79317 13.5342 10.2444 13.3256 10.6956 13.2039C10.9213 13.1343 11.1469 13.03 11.3378 12.8735C11.5808 12.7344 11.7369 12.491 11.789 12.2302V17.5507C11.9105 18.4374 11.6155 19.3068 11.0427 19.9675Z" fill="#B9B9B9"/>
</svg>
